<?xml version="1.0" encoding="UTF-8" standalone="no"?>
<svg
   xmlns:osb="http://www.openswatchbook.org/uri/2009/osb"
   xmlns:dc="http://purl.org/dc/elements/1.1/"
   xmlns:cc="http://creativecommons.org/ns#"
   xmlns:rdf="http://www.w3.org/1999/02/22-rdf-syntax-ns#"
   xmlns:svg="http://www.w3.org/2000/svg"
   xmlns="http://www.w3.org/2000/svg"
   xmlns:sodipodi="http://sodipodi.sourceforge.net/DTD/sodipodi-0.dtd"
   xmlns:inkscape="http://www.inkscape.org/namespaces/inkscape"
   width="28mm"
   height="15mm"
   viewBox="0 0 28 15"
   version="1.1"
   id="svg8"
   inkscape:version="1.0 (4035a4fb49, 2020-05-01)"
   sodipodi:docname="dip1.svg">
  <defs
     id="defs2">
    <linearGradient
       osb:paint="solid"
       id="linearGradient1071">
      <stop
         id="stop1069"
         offset="0"
         style="stop-color:#000000;stop-opacity:1;" />
    </linearGradient>
    <marker
       inkscape:stockid="Arrow1Lstart"
       orient="auto"
       refY="0"
       refX="0"
       id="Arrow1Lstart"
       style="overflow:visible"
       inkscape:isstock="true">
      <path
         id="path909"
         d="M 0,0 5,-5 -12.5,0 5,5 Z"
         style="fill:#000000;fill-opacity:1;fill-rule:evenodd;stroke:#000000;stroke-width:1pt;stroke-opacity:1"
         transform="matrix(0.8,0,0,0.8,10,0)" />
    </marker>
    <marker
       inkscape:stockid="Arrow1Lend"
       orient="auto"
       refY="0"
       refX="0"
       id="Arrow1Lend"
       style="overflow:visible"
       inkscape:isstock="true">
      <path
         id="path912"
         d="M 0,0 5,-5 -12.5,0 5,5 Z"
         style="fill:#000000;fill-opacity:1;fill-rule:evenodd;stroke:#000000;stroke-width:1pt;stroke-opacity:1"
         transform="matrix(-0.8,0,0,-0.8,-10,0)" />
    </marker>
    <marker
       inkscape:stockid="Arrow2Lstart"
       orient="auto"
       refY="0"
       refX="0"
       id="Arrow2Lstart"
       style="overflow:visible"
       inkscape:isstock="true">
      <path
         id="path927"
         style="fill:#000000;fill-opacity:1;fill-rule:evenodd;stroke:#000000;stroke-width:0.625;stroke-linejoin:round;stroke-opacity:1"
         d="M 8.7185878,4.0337352 -2.2072895,0.01601326 8.7185884,-4.0017078 c -1.7454984,2.3720609 -1.7354408,5.6174519 -6e-7,8.035443 z"
         transform="matrix(1.1,0,0,1.1,1.1,0)" />
    </marker>
    <marker
       inkscape:stockid="TriangleOutL"
       orient="auto"
       refY="0"
       refX="0"
       id="TriangleOutL"
       style="overflow:visible"
       inkscape:isstock="true">
      <path
         id="path1051"
         d="M 5.77,0 -2.88,5 V -5 Z"
         style="fill:#000000;fill-opacity:1;fill-rule:evenodd;stroke:#000000;stroke-width:1pt;stroke-opacity:1"
         transform="scale(0.8)" />
    </marker>
    <linearGradient
       id="linearGradient4678"
       osb:paint="solid">
      <stop
         style="stop-color:#ffffff;stop-opacity:1;"
         offset="0"
         id="stop4676" />
    </linearGradient>
  </defs>
  <sodipodi:namedview
     showborder="false"
     inkscape:pagecheckerboard="true"
     id="base"
     pagecolor="#ffffff"
     bordercolor="#666666"
     borderopacity="1.0"
     inkscape:pageopacity="0.0"
     inkscape:pageshadow="2"
     inkscape:zoom="8.32"
     inkscape:cx="51.961108"
     inkscape:cy="28.22933"
     inkscape:document-units="mm"
     inkscape:current-layer="layer2"
     showgrid="false"
     inkscape:window-width="1920"
     inkscape:window-height="1001"
     inkscape:window-x="-9"
     inkscape:window-y="-9"
     inkscape:window-maximized="1"
     inkscape:object-paths="false"
     inkscape:document-rotation="0"
     inkscape:snap-global="false" />
  <metadata
     id="metadata5">
    <rdf:RDF>
      <cc:Work
         rdf:about="">
        <dc:format>image/svg+xml</dc:format>
        <dc:type
           rdf:resource="http://purl.org/dc/dcmitype/StillImage" />
        <dc:title />
      </cc:Work>
    </rdf:RDF>
  </metadata>
  <g
     inkscape:label="Capa 1"
     inkscape:groupmode="layer"
     id="layer1">
    <rect
       y="2.6252434"
       x="9.124732"
       height="0.2111052"
       width="1.6866597"
       id="rect897"
       style="fill:#ffffff;fill-opacity:1;stroke-width:0.244831" />
    <rect
       style="fill:#ffffff;fill-opacity:1;stroke-width:0.264583"
       id="rect958"
       width="1.6866597"
       height="0.24654047"
       x="9.1956015"
       y="11.597928" />
    <rect
       transform="scale(-1,1)"
       y="11.574307"
       x="-13.055629"
       height="0.24654047"
       width="1.6866597"
       id="rect964"
       style="fill:#ffffff;fill-opacity:1;stroke-width:0.264583" />
  </g>
  <g
     inkscape:label="box"
     id="layer2"
     inkscape:groupmode="layer">
    <rect
       width="1.9985495"
       style="fill:#3c3c3c;fill-opacity:1;stroke-width:0.299177"
       id="rect4660"
       height="1.2253339"
       x="13.047496"
       y="9.764226" />
    <path
       id="path1167"
       d="M 0.94382285,7.1538863 V 0.43811444 H 3.1694799 c 1.958175,0 2.225657,-0.0042 2.225657,-0.03535 0,-0.03093 0.181689,-0.03535 1.453493,-0.03535 1.271804,0 1.453489,0.0044 1.453489,0.03535 0,0.03135 1.09853,0.03535 9.7050761,0.03535 h 9.70508 l 0.0017,2.57437786 c 0.0027,3.92003 0.0027,3.920328 0.01831,3.876296 0.01757,-0.04927 0.07082,-0.05526 0.07082,-0.008 0,0.01829 -0.02045,0.116385 -0.04542,0.217967 -0.06648,0.270345 -0.06648,1.563195 -6e-6,1.563195 0.03869,0 0.04542,0.06284 0.04542,0.424156 0,0.252205 -0.01167,0.424153 -0.02876,0.424153 -0.0158,0 -0.03368,-0.06097 -0.03969,-0.135493 -0.006,-0.07452 -0.0135,0.9063337 -0.01665,2.1796777 l -0.0057,2.315177 H 14.328039 0.94381285 Z M 13.268212,12.667886 v -0.659795 h -0.59048 -0.59048 v 0.659795 0.659796 h 0.59048 0.59048 z m 2.785858,0 v -0.659795 h -0.620762 -0.620763 v 0.659795 0.659796 h 0.620763 0.620762 z m 9.998827,0.515461 c 0.506635,-0.08372 0.976766,-0.441973 1.202116,-0.916049 0.272417,-0.573098 0.226455,-1.246105 -0.120696,-1.767308 -0.210526,-0.316079 -0.458392,-0.512342 -0.814972,-0.645309 -0.183483,-0.06842 -0.219405,-0.0734 -0.529919,-0.0734 -0.314888,0 -0.344174,0.0042 -0.535921,0.07721 -0.517458,0.196965 -0.907407,0.645161 -1.039922,1.195256 -0.0748,0.310508 -0.049,0.775447 0.0586,1.055849 0.296066,0.771565 1.008758,1.20131 1.780713,1.073753 z M 3.2519909,13.021959 c 0.770069,-0.225127 1.276173,-1.042001 1.14809,-1.853061 -0.0978,-0.619258 -0.494064,-1.119348 -1.056598,-1.333433 -0.193579,-0.07367 -0.221816,-0.07774 -0.538943,-0.07774 -0.325561,0 -0.340796,0.0024 -0.560201,0.08759 -0.29165,0.113271 -0.475471,0.23892 -0.652235,0.445835 -0.300804,0.352103 -0.4221481,0.724362 -0.397671,1.219985 0.01852,0.375017 0.082,0.57518 0.27301,0.860887 0.230868,0.345329 0.666232,0.631862 1.058362,0.696564 0.193931,0.032 0.531349,0.01035 0.726186,-0.04663 z m 4.065996,-0.507237 v -0.329898 l -0.431505,-0.0065 -0.431508,-0.0065 v 0.342974 0.342972 l 0.431508,-0.0065 0.431505,-0.0065 z M 16.023788,10.370387 V 9.745939 H 14.040381 12.05697 v 0.624448 0.624449 h 1.983411 1.983407 z m 5.78368,-0.589104 V 9.4396043 H 21.368394 20.92932 v 0.3416787 0.341681 h 0.439074 0.439074 z M 7.3179869,9.734153 V 9.4042553 l -0.431505,-0.0065 -0.431508,-0.0065 v 0.3429717 0.342975 l 0.431508,-0.0065 0.431505,-0.0065 z M 16.296317,8.4499093 v -0.259204 h 0.863009 0.863012 v -0.259205 -0.259207 h -0.863012 -0.863009 v -0.388807 -0.388809 h 0.908431 0.908431 v -0.270986 -0.270988 h -0.908431 -0.908431 v -0.424154 -0.424153 h 0.83273 0.83273 v -0.270988 -0.270986 h -0.83273 -0.83273 v -0.424156 -0.424153 h 0.847869 0.84787 v -0.270987 -0.270985 h -0.84787 -0.847869 v -0.164949 -0.164949 h -2.089391 -2.089395 v 0.129602 0.129602 H 11.2091 10.300669 v 0.318117 0.318116 h 0.908431 0.908431 v 0.400588 0.400591 h -0.93871 -0.938713 v 0.270988 0.270986 h 0.938713 0.93871 v 0.412372 0.412372 H 11.2091 10.300669 v 0.270988 0.270986 h 0.908431 0.908431 v 0.412372 0.412372 h -0.968992 -0.968993 v 0.270988 0.270986 h 0.968993 0.968992 v 0.247423 0.247424 h 2.089395 2.089391 z m 5.571713,-1.354937 v -0.341679 h -0.439074 -0.439075 v 0.341679 0.341682 h 0.439075 0.439074 z M 7.3331259,7.0714023 v -0.341681 h -0.439074 -0.439078 v 0.341681 0.341679 h 0.439078 0.439074 z M 21.898313,4.3850943 v -0.341682 h -0.439075 -0.439077 v 0.341682 0.341679 h 0.439077 0.439075 z M 7.3028439,4.2908383 v -0.341679 h -0.439075 -0.439074 v 0.341679 0.341681 h 0.439074 0.439075 z m 18.8511631,0.163951 c 0.831675,-0.16748 1.414602,-1.029204 1.29119,-1.908735 -0.126838,-0.903961 -0.815132,-1.5026859 -1.686569,-1.4670939 -0.356637,0.01457 -0.623472,0.1183359 -0.911212,0.3543649 -0.393984,0.323179 -0.584202,0.711326 -0.609333,1.243371 -0.02968,0.628442 0.184957,1.121845 0.640779,1.472972 0.377726,0.290967 0.819954,0.396785 1.275145,0.305121 z M 3.2828229,4.2795073 c 0.459461,-0.134321 0.837882,-0.48159 1.033838,-0.94873 0.246167,-0.58684 0.139807,-1.276585 -0.271932,-1.763432 -0.332589,-0.393264 -0.769309,-0.58073794 -1.302121,-0.5589759 -0.214087,0.0087 -0.28466,0.0233 -0.482963,0.09956 -0.646918,0.2488 -1.044016,0.843519 -1.042893,1.5618849 0.0014,0.819083 0.540045,1.493637 1.316826,1.64871 0.203149,0.04056 0.53642,0.0232 0.749245,-0.03902 z M 16.356879,1.5220573 V 0.88582736 h -0.514776 c -0.323001,0 -0.514779,0.0088 -0.514779,0.02357 0,0.01531 -0.413841,0.02357 -1.18096,0.02357 -0.767122,0 -1.180963,-0.0083 -1.180963,-0.02357 0,-0.01473 -0.181685,-0.02357 -0.484497,-0.02357 h -0.484496 v 0.63622994 0.636232 h 2.180235 2.180236 z m -9.0540351,-0.03535 v -0.341679 h -0.439075 -0.439074 v 0.341679 0.341682 h 0.439074 0.439075 z"
       style="fill:#3c641e;fill-opacity:1;stroke-width:0.0267123" />
    <rect
       width="0.84651285"
       id="rect104"
       height="0.65873945"
       x="6.4495955"
       y="1.1630584"
       style="fill:#8c8c8c;fill-opacity:1;stroke-width:0.299177" />
    <rect
       width="0.84651285"
       style="fill:#8c8c8c;fill-opacity:1;stroke-width:0.299177"
       y="3.9676583"
       x="6.4355345"
       height="0.65873945"
       id="rect4617" />
    <rect
       width="0.84651285"
       id="rect4619"
       height="0.65873945"
       x="6.4783583"
       y="6.7335992"
       style="fill:#8c8c8c;fill-opacity:1;stroke-width:0.299177" />
    <rect
       width="0.84651285"
       style="fill:#8c8c8c;fill-opacity:1;stroke-width:0.299177"
       y="9.3995762"
       x="6.4569464"
       height="0.65873945"
       id="rect4621" />
    <rect
       width="0.84651285"
       id="rect4623"
       height="0.65873945"
       x="6.4569464"
       y="12.188725"
       style="fill:#8c8c8c;fill-opacity:1;stroke-width:0.299177" />
    <rect
       style="fill:#8c8c8c;fill-opacity:1;stroke-width:0.299177"
       y="9.449564"
       x="20.958109"
       height="0.65873945"
       width="0.84651285"
       id="rect4625" />
    <rect
       id="rect4627"
       width="0.84651285"
       height="0.65873945"
       x="21.000933"
       y="6.7669244"
       style="fill:#8c8c8c;fill-opacity:1;stroke-width:0.299177" />
    <rect
       style="fill:#8c8c8c;fill-opacity:1;stroke-width:0.299177"
       y="4.0509634"
       x="21.043756"
       height="0.65873945"
       width="0.84651285"
       id="rect4629" />
    <rect
       style="fill:#404040;fill-opacity:1;stroke-width:0.299177"
       id="rect4631"
       width="4.1485028"
       height="5.4433126"
       x="12.139068"
       y="3.2605355" />
    <rect
       style="fill:#8c8c8c;fill-opacity:1;stroke-width:0.299177"
       id="rect4636"
       width="1.6957384"
       height="0.5184105"
       x="16.287577"
       y="3.5904343" />
    <rect
       y="4.9807124"
       x="16.257292"
       height="0.5184105"
       width="1.6957384"
       id="rect4638"
       style="fill:#8c8c8c;fill-opacity:1;stroke-width:0.299177" />
    <rect
       style="fill:#8c8c8c;fill-opacity:1;stroke-width:0.309678"
       id="rect4642"
       width="1.8168627"
       height="0.5184105"
       x="16.287577"
       y="6.3662744" />
    <rect
       y="7.6858621"
       x="16.287577"
       height="0.49484637"
       width="1.7260194"
       id="rect4644"
       style="fill:#8c8c8c;fill-opacity:1;stroke-width:0.294897" />
    <rect
       y="6.3191476"
       x="10.304034"
       height="0.5184105"
       width="1.8168627"
       id="rect4646"
       style="fill:#8c8c8c;fill-opacity:1;stroke-width:0.309678" />
    <rect
       width="1.937987"
       style="fill:#8c8c8c;fill-opacity:1;stroke-width:0.319834"
       id="rect4648"
       height="0.5184105"
       x="10.18291"
       y="7.6905847" />
    <rect
       y="4.9571452"
       x="10.243475"
       height="0.5184105"
       width="1.937987"
       id="rect4650"
       style="fill:#8c8c8c;fill-opacity:1;stroke-width:0.319834" />
    <rect
       style="fill:#8c8c8c;fill-opacity:1;stroke-width:0.333838"
       id="rect4652"
       width="1.7865819"
       height="0.61266696"
       x="10.310096"
       y="3.5103142" />
    <rect
       style="fill:#8c643c;fill-opacity:1;stroke-width:0.299177"
       id="rect4654"
       width="2.3922029"
       height="1.2017697"
       x="12.95666"
       y="0.95125127" />
    <rect
       style="fill:#8c8c8c;fill-opacity:1;stroke-width:0.299177"
       id="rect4656"
       width="0.9387145"
       height="1.2488927"
       x="12.017943"
       y="0.90412831" />
    <rect
       y="0.90412831"
       x="15.348861"
       height="1.2488927"
       width="0.9992789"
       id="rect4658"
       style="fill:#8c8c8c;fill-opacity:1;stroke-width:0.308678" />
    <rect
       width="0.96898824"
       style="fill:#8c8c8c;fill-opacity:1;stroke-width:0.299177"
       id="rect4662"
       height="1.2253276"
       x="12.078509"
       y="9.764226" />
    <rect
       width="0.96898824"
       y="9.7642336"
       x="15.046042"
       height="1.2253276"
       id="rect4664"
       style="fill:#8c8c8c;fill-opacity:1;stroke-width:0.299177" />
    <rect
       width="1.1385711"
       y="12.024251"
       x="12.108787"
       height="1.2981503"
       id="rect4668"
       style="fill:#8c8c8c;fill-opacity:1;stroke-width:0.3338" />
    <rect
       width="1.2112366"
       style="fill:#8c8c8c;fill-opacity:1;stroke-width:0.344005"
       id="rect4670"
       height="1.2960199"
       x="14.821972"
       y="12.026381" />
    <text
       transform="scale(0.68577295,1.4582086)"
       id="text1171"
       y="4.4265361"
       x="18.410803"
       style="font-style:normal;font-weight:normal;font-size:1.07286px;line-height:1.25;font-family:sans-serif;fill:#ffffff;fill-opacity:1;stroke:none;stroke-width:0.0268217"
       xml:space="preserve"><tspan
         style="fill:#ffffff;fill-opacity:1;stroke-width:0.0268217"
         y="4.4265361"
         x="18.410803"
         id="tspan1169"
         sodipodi:role="line">X9C103S</tspan></text>
    <rect
       y="-14.857609"
       x="12.009336"
       height="1.574613"
       width="1.2963824"
       id="rect4672"
       style="fill:#ffffff;fill-opacity:1;stroke-width:0.273147"
       transform="matrix(-0.00267759,0.99999642,-0.99999937,-0.00112663,0,0)" />
    <rect
       style="fill:none;fill-opacity:1;stroke:#32c864;stroke-width:0.299177;stroke-opacity:1"
       id="rect4674"
       width="27.131823"
       height="13.723739"
       x="0.75278151"
       y="0.29555821" />
    <ellipse
       style="fill:none;fill-opacity:1;stroke:#32c864;stroke-width:0.372661;stroke-opacity:1"
       id="path4684"
       cx="25.841248"
       cy="2.7774727"
       rx="1.3966991"
       ry="1.5346018" />
    <ellipse
       ry="1.5450362"
       rx="1.4101079"
       cy="11.484403"
       cx="25.795826"
       id="ellipse4688"
       style="fill:none;fill-opacity:1;stroke:#32c864;stroke-width:0.375717;stroke-opacity:1" />
    <ellipse
       ry="1.5009422"
       rx="1.3988664"
       cy="11.413716"
       cx="2.7973638"
       id="ellipse4692"
       style="fill:none;fill-opacity:1;stroke:#32c864;stroke-width:0.368838;stroke-opacity:1" />
    <ellipse
       style="fill:none;fill-opacity:1;stroke:#32c864;stroke-width:0.368838;stroke-opacity:1"
       id="ellipse4694"
       cx="2.8276448"
       cy="2.6714289"
       rx="1.3988664"
       ry="1.5009422" />
    <rect
       style="fill:none;fill-opacity:1;stroke:#ffffff;stroke-width:0.289729;stroke-opacity:1"
       id="rect4699"
       width="2.821157"
       height="8.2601128"
       x="20.280306"
       y="3.1305497" />
    <rect
       style="fill:none;fill-opacity:1;stroke:#ffffff;stroke-width:0.277061;stroke-opacity:1"
       id="rect4705"
       width="0.86334985"
       height="1.9506296"
       x="23.872635"
       y="6.3997445" />
    <g
       transform="matrix(1.2818184,0,0,0.99748558,-43.154131,-59.236683)"
       id="g4723">
      <rect
         y="64.686378"
         x="52.49144"
         height="0.094494052"
         width="1.2756697"
         id="rect4717"
         style="fill:none;fill-opacity:1;stroke:#ffffff;stroke-width:0.264583;stroke-opacity:1" />
      <rect
         y="64.786079"
         x="52.496635"
         height="0.74554729"
         width="0.084094539"
         id="rect4719"
         style="fill:none;fill-opacity:1;stroke:#ffffff;stroke-width:0.274987;stroke-opacity:1" />
    </g>
    <g
       id="g4729"
       transform="matrix(1.37016,0,0,-1.0435398,-47.736469,76.987615)">
      <rect
         style="fill:none;fill-opacity:1;stroke:#ffffff;stroke-width:0.264583;stroke-opacity:1"
         id="rect4725"
         width="1.2756697"
         height="0.094494052"
         x="52.49144"
         y="64.686378" />
      <rect
         style="fill:none;fill-opacity:1;stroke:#ffffff;stroke-width:0.274987;stroke-opacity:1"
         id="rect4727"
         width="0.084094539"
         height="0.74554729"
         x="52.496635"
         y="64.786079" />
    </g>
    <text
       xml:space="preserve"
       style="font-style:normal;font-weight:normal;font-size:1.30942px;line-height:1.25;font-family:sans-serif;letter-spacing:0px;word-spacing:0px;fill:#ffffff;fill-opacity:1;stroke:#ffffff;stroke-width:0.0327355;stroke-opacity:1"
       x="-12.877039"
       y="17.395149"
       id="text4733"
       transform="matrix(-0.02478155,-0.89063018,1.1221501,-0.02337467,0,0)"><tspan
         sodipodi:role="line"
         id="tspan4731"
         x="-12.877039"
         y="17.395149"
         style="fill:#ffffff;fill-opacity:1;stroke:#ffffff;stroke-width:0.0327355;stroke-opacity:1">VH</tspan></text>
    <text
       xml:space="preserve"
       style="font-style:normal;font-weight:normal;font-size:1.36804px;line-height:1.25;font-family:sans-serif;letter-spacing:0px;word-spacing:0px;fill:#ffffff;fill-opacity:1;stroke:none;stroke-width:0.0342009"
       x="-9.053174"
       y="17.922211"
       id="text4737"
       transform="matrix(0.00420279,-0.90352269,1.1067577,0.00459494,0,0)"><tspan
         sodipodi:role="line"
         id="tspan4735"
         x="-9.053174"
         y="17.922211"
         style="fill:#ffffff;fill-opacity:1;stroke-width:0.0342009">VW</tspan></text>
    <text
       xml:space="preserve"
       style="font-style:normal;font-weight:normal;font-size:1.49562px;line-height:1.25;font-family:sans-serif;letter-spacing:0px;word-spacing:0px;fill:#ffffff;fill-opacity:1;stroke:none;stroke-width:0.0373904"
       x="-5.2229261"
       y="18.265129"
       id="text4741"
       transform="matrix(0.01780291,-0.91655335,1.0906351,0.02104924,0,0)"><tspan
         sodipodi:role="line"
         id="tspan4739"
         x="-5.2229261"
         y="18.265129"
         style="fill:#ffffff;fill-opacity:1;stroke-width:0.0373904">VL</tspan></text>
    <text
       transform="matrix(0.97794129,-0.02761379,0.01389549,1.0221639,0,0)"
       id="text4745"
       y="6.3048849"
       x="26.868986"
       style="font-style:normal;font-weight:normal;font-size:1.15109px;line-height:1.25;font-family:sans-serif;letter-spacing:0px;word-spacing:0px;fill:#ffffff;fill-opacity:1;stroke:none;stroke-width:0.0287772"
       xml:space="preserve"><tspan
         style="fill:#ffffff;fill-opacity:1;stroke-width:0.0287772"
         y="6.3048849"
         x="26.868986"
         id="tspan4743"
         sodipodi:role="line">VL</tspan></text>
    <text
       transform="matrix(0.92970327,-0.00891068,0.00547854,1.0755595,0,0)"
       id="text4749"
       y="7.4191198"
       x="28.065359"
       style="font-style:normal;font-weight:normal;font-size:1.12504px;line-height:1.25;font-family:sans-serif;letter-spacing:0px;word-spacing:0px;fill:#ffffff;fill-opacity:1;stroke:none;stroke-width:0.028126"
       xml:space="preserve"><tspan
         style="fill:#ffffff;fill-opacity:1;stroke-width:0.028126"
         y="7.4191198"
         x="28.065359"
         id="tspan4747"
         sodipodi:role="line">VW</tspan></text>
    <text
       transform="matrix(0.98301253,-0.01556656,0.01939463,1.0169739,0,0)"
       id="text4753"
       y="9.7843981"
       x="26.565281"
       style="font-style:normal;font-weight:normal;font-size:1.15987px;line-height:1.25;font-family:sans-serif;letter-spacing:0px;word-spacing:0px;fill:#ffffff;fill-opacity:1;stroke:#ffffff;stroke-width:0.0289966;stroke-opacity:1"
       xml:space="preserve"><tspan
         style="fill:#ffffff;fill-opacity:1;stroke:#ffffff;stroke-width:0.0289966;stroke-opacity:1"
         y="9.7843981"
         x="26.565281"
         id="tspan4751"
         sodipodi:role="line">VH</tspan></text>
    <rect
       style="fill:#ffffff;fill-opacity:1;fill-rule:evenodd;stroke-width:0.200511"
       id="rect70"
       width="0.29755318"
       height="2.2648933"
       x="11.50627"
       y="0.58232045" />
    <rect
       style="fill:#ffffff;fill-opacity:1;stroke-width:0.299177"
       id="rect895"
       width="2.1619914"
       height="0.24592057"
       x="11.506267"
       y="0.58232045" />
    <rect
       y="0.57054067"
       x="14.322406"
       height="0.24592057"
       width="2.1014292"
       id="rect899"
       style="fill:#ffffff;fill-opacity:1;stroke-width:0.294957" />
    <rect
       y="0.57054067"
       x="16.396662"
       height="2.2648933"
       width="0.29755318"
       id="rect901"
       style="fill:#ffffff;fill-opacity:1;fill-rule:evenodd;stroke-width:0.200511" />
    <rect
       style="fill:#ffffff;fill-opacity:1;stroke-width:0.276843"
       id="rect903"
       width="2.1619914"
       height="0.21057439"
       x="11.50627"
       y="2.6366379" />
    <rect
       y="2.6366379"
       x="14.352691"
       height="0.21057439"
       width="2.1619914"
       id="rect905"
       style="fill:#ffffff;fill-opacity:1;stroke-width:0.276843" />
    <text
       xml:space="preserve"
       style="font-style:normal;font-weight:normal;font-size:1.04474px;line-height:1.25;font-family:sans-serif;fill:#ffffff;fill-opacity:1;stroke:none;stroke-width:0.0261185"
       x="-17.031315"
       y="7.6604276"
       id="text1315"
       transform="matrix(0.00837733,-0.78946328,1.266597,0.00813902,0,0)"
       inkscape:transform-center-x="-0.30710565"><tspan
         sodipodi:role="line"
         id="tspan1313"
         x="-17.031315"
         y="7.6604276"
         style="fill:#ffffff;fill-opacity:1;stroke-width:0.0261185">GND</tspan></text>
    <text
       xml:space="preserve"
       style="font-style:normal;font-weight:normal;font-size:1.21381px;line-height:1.25;font-family:sans-serif;fill:#ffffff;fill-opacity:1;stroke:none;stroke-width:0.0303454"
       x="-13.943644"
       y="7.4685631"
       id="text1319"
       transform="matrix(0.01162249,-0.7603875,1.3149329,0.01217104,0,0)"><tspan
         sodipodi:role="line"
         id="tspan1317"
         x="-13.943644"
         y="7.4685631"
         style="fill:#ffffff;fill-opacity:1;stroke-width:0.0303454">U/D</tspan></text>
    <text
       xml:space="preserve"
       style="font-style:normal;font-weight:normal;font-size:1.14102px;line-height:1.25;font-family:sans-serif;fill:#ffffff;fill-opacity:1;stroke:none;stroke-width:0.0285255"
       x="-9.3652515"
       y="8.5263681"
       id="text1323"
       transform="matrix(-0.01560801,-0.89646599,1.1151955,-0.01698924,0,0)"><tspan
         sodipodi:role="line"
         id="tspan1321"
         x="-9.3652515"
         y="8.5263681"
         style="fill:#ffffff;fill-opacity:1;stroke-width:0.0285255">INC</tspan><tspan
         sodipodi:role="line"
         x="-9.3652515"
         y="9.9526434"
         style="fill:#ffffff;fill-opacity:1;stroke-width:0.0285255"
         id="tspan1325" /></text>
    <text
       xml:space="preserve"
       style="font-style:normal;font-weight:normal;font-size:1.76579px;line-height:1.25;font-family:sans-serif;fill:#ffffff;fill-opacity:1;stroke:none;stroke-width:0.0441449"
       x="-6.2668877"
       y="7.9411869"
       id="text1329"
       transform="matrix(-0.00351803,-0.81015245,1.2343215,-0.00324579,0,0)"><tspan
         sodipodi:role="line"
         id="tspan1327"
         x="-6.2668877"
         y="7.9411869"
         style="fill:#ffffff;fill-opacity:1;stroke-width:0.0441449">cs</tspan></text>
    <text
       transform="matrix(0.00739768,-0.84546047,1.1827055,0.00936145,0,0)"
       id="text89"
       y="8.2026358"
       x="-3.450928"
       style="font-style:normal;font-weight:normal;font-size:1.21026px;line-height:1.25;font-family:sans-serif;fill:#ffffff;fill-opacity:1;stroke:none;stroke-width:0.0302567"
       xml:space="preserve"><tspan
         style="fill:#ffffff;fill-opacity:1;stroke-width:0.0302567"
         y="8.2026358"
         x="-3.450928"
         id="tspan87"
         sodipodi:role="line">VCC</tspan></text>
    <text
       transform="scale(1.0429931,0.95877912)"
       id="text940"
       y="13.938915"
       x="16.100792"
       style="font-style:normal;font-weight:normal;font-size:1.20652px;line-height:1.25;font-family:sans-serif;fill:#ffffff;fill-opacity:1;stroke:none;stroke-width:0.030163"
       xml:space="preserve"><tspan
         id="tspan942"
         style="fill:#ffffff;fill-opacity:1;stroke-width:0.030163"
         y="13.938915"
         x="16.100792"
         sodipodi:role="line">D1</tspan></text>
    <text
       transform="scale(0.94712414,1.0558278)"
       id="text948"
       y="10.716018"
       x="17.577591"
       style="font-style:normal;font-weight:normal;font-size:1.58512px;line-height:1.25;font-family:sans-serif;fill:#ffffff;fill-opacity:1;stroke:none;stroke-width:0.0396281"
       xml:space="preserve"><tspan
         style="fill:#ffffff;fill-opacity:1;stroke-width:0.0396281"
         y="10.716018"
         x="17.577591"
         id="tspan946"
         sodipodi:role="line">R1</tspan></text>
    <rect
       style="fill:none;fill-opacity:1;stroke:#ffffff;stroke-width:0.289562;stroke-opacity:1"
       id="rect4703"
       width="2.6096723"
       height="13.266595"
       x="5.5322943"
       y="0.47997212" />
    <rect
       y="9.3246021"
       x="11.536555"
       height="2.2648933"
       width="0.29755318"
       id="rect950"
       style="fill:#ffffff;fill-opacity:1;fill-rule:evenodd;stroke-width:0.200511" />
    <rect
       y="9.3246021"
       x="11.536548"
       height="0.24592057"
       width="2.1619914"
       id="rect952"
       style="fill:#ffffff;fill-opacity:1;stroke-width:0.299177" />
    <rect
       y="11.378919"
       x="11.536555"
       height="0.21057439"
       width="2.1619914"
       id="rect954"
       style="fill:#ffffff;fill-opacity:1;stroke-width:0.276843" />
    <rect
       style="fill:#ffffff;fill-opacity:1;fill-rule:evenodd;stroke-width:0.200511"
       id="rect956"
       width="0.29755318"
       height="2.2648933"
       x="11.597117"
       y="11.586765" />
    <rect
       style="fill:#ffffff;fill-opacity:1;stroke-width:0.276843"
       id="rect960"
       width="2.1619914"
       height="0.21057439"
       x="11.597117"
       y="13.641079" />
    <rect
       transform="scale(-1,1)"
       y="11.563199"
       x="-16.544962"
       height="2.2648933"
       width="0.29755318"
       id="rect962"
       style="fill:#ffffff;fill-opacity:1;fill-rule:evenodd;stroke-width:0.200511" />
    <rect
       transform="scale(-1,1)"
       y="13.61752"
       x="-16.544962"
       height="0.21057439"
       width="2.1619914"
       id="rect966"
       style="fill:#ffffff;fill-opacity:1;stroke-width:0.276843" />
    <rect
       style="fill:#ffffff;fill-opacity:1;fill-rule:evenodd;stroke-width:0.200511"
       id="rect968"
       width="0.29755318"
       height="2.2648933"
       x="-16.605528"
       y="9.3246098"
       transform="scale(-1,1)" />
    <rect
       style="fill:#ffffff;fill-opacity:1;stroke-width:0.299177"
       id="rect970"
       width="2.1619914"
       height="0.24592057"
       x="-16.605532"
       y="9.3246098"
       transform="scale(-1,1)" />
    <rect
       style="fill:#ffffff;fill-opacity:1;stroke-width:0.276843"
       id="rect972"
       width="2.1619914"
       height="0.21057439"
       x="-16.605528"
       y="11.378927"
       transform="scale(-1,1)" />
    <rect
       y="1.0176282"
       x="6.1057692"
       height="1.0812299"
       width="1.6218449"
       id="rect220"
       style="fill:none;fill-rule:nonzero;stroke-width:0.265;fill-opacity:1;stroke-miterlimit:4;stroke-dasharray:none" />
    <rect
       y="1.1374304"
       x="6.2891736"
       height="0.77802378"
       width="1.1278336"
       id="rect1075"
       style="fill:none;fill-opacity:1;fill-rule:nonzero;stroke:#000000;stroke-width:0.223;stroke-miterlimit:4;stroke-dasharray:none;stroke-opacity:1" />
    <rect
       style="fill:none;fill-opacity:1;fill-rule:nonzero;stroke:#000000;stroke-width:0.223;stroke-miterlimit:4;stroke-dasharray:none;stroke-opacity:1"
       id="rect1077"
       width="1.1278336"
       height="0.77802378"
       x="6.2891736"
       y="3.8468654" />
    <rect
       y="6.7407455"
       x="6.3845763"
       height="0.77802378"
       width="1.1278336"
       id="rect1079"
       style="fill:none;fill-opacity:1;fill-rule:nonzero;stroke:#000000;stroke-width:0.223;stroke-miterlimit:4;stroke-dasharray:none;stroke-opacity:1" />
    <rect
       style="fill:none;fill-opacity:1;fill-rule:nonzero;stroke:#000000;stroke-width:0.223;stroke-miterlimit:4;stroke-dasharray:none;stroke-opacity:1"
       id="rect1081"
       width="1.1278336"
       height="0.77802378"
       x="6.2891736"
       y="9.4120197" />
    <rect
       y="12.178697"
       x="6.3209743"
       height="0.77802378"
       width="1.1278336"
       id="rect1083"
       style="fill:none;fill-opacity:1;fill-rule:nonzero;stroke:#000000;stroke-width:0.223;stroke-miterlimit:4;stroke-dasharray:none;stroke-opacity:1" />
    <rect
       style="fill:none;fill-opacity:1;fill-rule:nonzero;stroke:#000000;stroke-width:0.223;stroke-miterlimit:4;stroke-dasharray:none;stroke-opacity:1"
       id="rect1085"
       width="1.1278336"
       height="0.77802378"
       x="20.822176"
       y="9.443821" />
    <rect
       y="6.7725468"
       x="20.853977"
       height="0.77802378"
       width="1.1278336"
       id="rect1087"
       style="fill:none;fill-opacity:1;fill-rule:nonzero;stroke:#000000;stroke-width:0.223;stroke-miterlimit:4;stroke-dasharray:none;stroke-opacity:1" />
    <rect
       style="fill:none;fill-opacity:1;fill-rule:nonzero;stroke:#000000;stroke-width:0.223;stroke-miterlimit:4;stroke-dasharray:none;stroke-opacity:1"
       id="rect1089"
       width="1.1278336"
       height="0.77802378"
       x="20.885778"
       y="4.0058699" />
  </g>
</svg>
